<svg xmlns="http://www.w3.org/2000/svg" xmlns:xlink="http://www.w3.org/1999/xlink" width="179.5" height="63" viewBox="0 0 179.5 63">
  <defs>
    <filter id="Rectangle_Copy" x="0" y="0" width="63" height="63" filterUnits="userSpaceOnUse">
      <feOffset dy="3" input="SourceAlpha"/>
      <feGaussianBlur stdDeviation="2.5" result="blur"/>
      <feFlood flood-opacity="0.051"/>
      <feComposite operator="in" in2="blur"/>
      <feComposite in="SourceGraphic"/>
    </filter>
    <linearGradient id="linear-gradient" x1="0.5" x2="0.5" y2="1" gradientUnits="objectBoundingBox">
      <stop offset="0" stop-color="#fff" stop-opacity="0.051"/>
      <stop offset="1" stop-color="#fff" stop-opacity="0"/>
    </linearGradient>
    <filter id="Rectangle_Copy-2" x="4.5" y="2.5" width="54" height="54" filterUnits="userSpaceOnUse">
      <feOffset dy="1" input="SourceAlpha"/>
      <feGaussianBlur stdDeviation="1" result="blur-2"/>
      <feFlood flood-opacity="0.102"/>
      <feComposite operator="in" in2="blur-2"/>
      <feComposite in="SourceGraphic"/>
    </filter>
    <filter id="Rectangle_Copy-3" x="4.5" y="2.5" width="54" height="54" filterUnits="userSpaceOnUse">
      <feOffset dy="1" input="SourceAlpha"/>
      <feGaussianBlur result="blur-3"/>
      <feFlood flood-color="#fff" flood-opacity="0.102" result="color"/>
      <feComposite operator="out" in="SourceGraphic" in2="blur-3"/>
      <feComposite operator="in" in="color"/>
      <feComposite operator="in" in2="SourceGraphic"/>
    </filter>
    <linearGradient id="linear-gradient-2" x1="0.085" x2="1" y2="1" gradientUnits="objectBoundingBox">
      <stop offset="0" stop-color="#3142c6"/>
      <stop offset="1" stop-color="#af61d1"/>
    </linearGradient>
  </defs>
  <g id="Group_2" data-name="Group 2" transform="translate(-7.5 -3.5)">
    <g id="Group" transform="translate(15 8)">
      <g id="Rectangle_Copy-4" data-name="Rectangle Copy">
        <g transform="matrix(1, 0, 0, 1, -7.5, -4.5)" filter="url(#Rectangle_Copy)">
          <rect id="Rectangle_Copy-5" data-name="Rectangle Copy" width="48" height="48" rx="8" transform="translate(7.5 4.5)" fill="#fff"/>
        </g>
        <g data-type="innerShadowGroup">
          <g transform="matrix(1, 0, 0, 1, -7.5, -4.5)" filter="url(#Rectangle_Copy-2)" style="mix-blend-mode: overlay;isolation: isolate">
            <rect id="Rectangle_Copy-6" data-name="Rectangle Copy" width="48" height="48" rx="8" transform="translate(7.5 4.5)" fill="url(#linear-gradient)"/>
          </g>
          <g transform="matrix(1, 0, 0, 1, -7.5, -4.5)" filter="url(#Rectangle_Copy-3)" style="mix-blend-mode: overlay;isolation: isolate">
            <rect id="Rectangle_Copy-7" data-name="Rectangle Copy" width="48" height="48" rx="8" transform="translate(7.5 4.5)" fill="#fff"/>
          </g>
        </g>
      </g>
      <g id="Shape">
        <path id="Shape-2" data-name="Shape" d="M23.863,32.361H18.785A1.015,1.015,0,0,1,17.77,31.35V21.237a4.059,4.059,0,0,0-4.063-4.045H12.694a4.059,4.059,0,0,0-4.063,4.045V31.35a1.015,1.015,0,0,1-1.014,1.012H2.539A1.015,1.015,0,0,1,1.523,31.35V16.18A1.015,1.015,0,0,1,2.539,15.17a6.092,6.092,0,0,1,5.077,2.712,6.094,6.094,0,0,1,5.078-2.712h1.013a6.092,6.092,0,0,1,5.078,2.713,6.093,6.093,0,0,1,5.078-2.713,1.014,1.014,0,0,1,1.015,1.011V31.35A1.015,1.015,0,0,1,23.863,32.361Zm-1.015-4.9L19.8,29.822v.517h3.047Zm-19.293,0v2.876H6.6v-.516Zm0-5.057v2.507a.958.958,0,0,1,.115.077L6.6,27.261V24.766Zm19.293,0L19.8,24.765V27.26l2.93-2.271a1.1,1.1,0,0,1,.117-.078ZM3.554,17.317v2.539a.958.958,0,0,1,.115.077L6.6,22.2v-.967A4.044,4.044,0,0,0,3.554,17.317Zm19.293-.023a4.145,4.145,0,0,0-1.046.457,4.062,4.062,0,0,0-2,3.487V22.2l2.93-2.27a1.1,1.1,0,0,1,.117-.078V17.294ZM7.615,15.708h0a6.1,6.1,0,0,0-4.568-2.055V12.641a.51.51,0,0,1,.512-.506H22.842a.51.51,0,0,1,.512.506v1.011a6.11,6.11,0,0,0-4.569,2.054,6.116,6.116,0,0,0-4.571-2.054H12.186a6.111,6.111,0,0,0-4.57,2.055Zm17.769-5.089H1.015A1.014,1.014,0,0,1,0,9.608v-8.6A1.015,1.015,0,0,1,1.015,0H5.585A1.015,1.015,0,0,1,6.6,1.012V4.046H9.139V1.012A1.015,1.015,0,0,1,10.154,0h6.092a1.015,1.015,0,0,1,1.015,1.012V4.046H19.8V1.012A1.015,1.015,0,0,1,20.815,0h4.569A1.015,1.015,0,0,1,26.4,1.012v8.6A1.014,1.014,0,0,1,25.385,10.618Z" transform="translate(11.2 8)" fill="url(#linear-gradient-2)"/>
        <path id="Shape-3" data-name="Shape" d="M23.863,32.361H18.785A1.015,1.015,0,0,1,17.77,31.35V21.237a4.059,4.059,0,0,0-4.063-4.045H12.694a4.059,4.059,0,0,0-4.063,4.045V31.35a1.015,1.015,0,0,1-1.014,1.012H2.539A1.015,1.015,0,0,1,1.523,31.35V16.18A1.015,1.015,0,0,1,2.539,15.17a6.092,6.092,0,0,1,5.077,2.712,6.094,6.094,0,0,1,5.078-2.712h1.013a6.092,6.092,0,0,1,5.078,2.713,6.093,6.093,0,0,1,5.078-2.713,1.014,1.014,0,0,1,1.015,1.011V31.35A1.015,1.015,0,0,1,23.863,32.361Zm-1.015-4.9L19.8,29.822v.517h3.047Zm-19.293,0v2.876H6.6v-.516Zm0-5.057v2.507a.958.958,0,0,1,.115.077L6.6,27.261V24.766Zm19.293,0L19.8,24.765V27.26l2.93-2.271a1.1,1.1,0,0,1,.117-.078ZM3.554,17.317v2.539a.958.958,0,0,1,.115.077L6.6,22.2v-.967A4.044,4.044,0,0,0,3.554,17.317Zm19.293-.023a4.145,4.145,0,0,0-1.046.457,4.062,4.062,0,0,0-2,3.487V22.2l2.93-2.27a1.1,1.1,0,0,1,.117-.078V17.294ZM7.615,15.708h0a6.1,6.1,0,0,0-4.568-2.055V12.641a.51.51,0,0,1,.512-.506H22.842a.51.51,0,0,1,.512.506v1.011a6.11,6.11,0,0,0-4.569,2.054,6.116,6.116,0,0,0-4.571-2.054H12.186a6.111,6.111,0,0,0-4.57,2.055Zm17.769-5.089H1.015A1.014,1.014,0,0,1,0,9.608v-8.6A1.015,1.015,0,0,1,1.015,0H5.585A1.015,1.015,0,0,1,6.6,1.012V4.046H9.139V1.012A1.015,1.015,0,0,1,10.154,0h6.092a1.015,1.015,0,0,1,1.015,1.012V4.046H19.8V1.012A1.015,1.015,0,0,1,20.815,0h4.569A1.015,1.015,0,0,1,26.4,1.012v8.6A1.014,1.014,0,0,1,25.385,10.618Z" transform="translate(11.2 8)" fill="none"/>
      </g>
    </g>
    <text id="Foundation" transform="translate(76 35)" fill="#2b292d" font-size="20" font-family="WorkSans-Bold, Work Sans" font-weight="700"><tspan x="0" y="0">Foundation</tspan></text>
  </g>
</svg>
